<svg width="35" height="36" viewBox="0 0 35 36" fill="none" xmlns="http://www.w3.org/2000/svg">
<path d="M17.4622 9.59248C12.9988 9.59248 9.39656 13.2683 9.39656 17.8229C9.39656 22.3775 12.9988 26.0533 17.4622 26.0533C21.9257 26.0533 25.5279 22.3775 25.5279 17.8229C25.5279 13.2683 21.9257 9.59248 17.4622 9.59248ZM17.4622 23.1721C14.5757 23.1721 12.2201 20.7684 12.2201 17.8229C12.2201 14.8774 14.5757 12.4737 17.4622 12.4737C20.3487 12.4737 22.7043 14.8774 22.7043 17.8229C22.7043 20.7684 20.3487 23.1721 17.4622 23.1721ZM25.8582 7.33724C24.8161 7.33724 23.9745 8.196 23.9745 9.25941C23.9745 10.3228 24.8161 11.1816 25.8582 11.1816C26.9003 11.1816 27.7419 10.3268 27.7419 9.25941C27.7422 9.0069 27.6937 8.75681 27.5991 8.52346C27.5046 8.29011 27.3658 8.07808 27.1909 7.89953C27.0159 7.72097 26.8081 7.5794 26.5794 7.48292C26.3508 7.38643 26.1057 7.33693 25.8582 7.33724ZM33.1845 17.8229C33.1845 15.6078 33.2042 13.4127 33.0823 11.2016C32.9604 8.6334 32.3862 6.35409 30.5458 4.47606C28.7014 2.59402 26.4717 2.01215 23.9549 1.88775C21.7841 1.76336 19.633 1.78342 17.4661 1.78342C15.2954 1.78342 13.1443 1.76336 10.9774 1.88775C8.46061 2.01215 6.22692 2.59803 4.38649 4.47606C2.54213 6.3581 1.97191 8.6334 1.85 11.2016C1.72809 13.4168 1.74775 15.6118 1.74775 17.8229C1.74775 20.034 1.72809 22.2331 1.85 24.4441C1.97191 27.0124 2.54606 29.2917 4.38649 31.1697C6.23086 33.0518 8.46061 33.6336 10.9774 33.758C13.1482 33.8824 15.2993 33.8624 17.4661 33.8624C19.6369 33.8624 21.788 33.8824 23.9549 33.758C26.4717 33.6336 28.7054 33.0478 30.5458 31.1697C32.3902 29.2877 32.9604 27.0124 33.0823 24.4441C33.2081 22.2331 33.1845 20.038 33.1845 17.8229ZM29.7239 27.2853C29.4368 28.0156 29.0908 28.5614 28.5363 29.1232C27.9818 29.689 27.4509 30.0421 26.7352 30.3351C24.6666 31.1737 19.7549 30.9851 17.4622 30.9851C15.1695 30.9851 10.2539 31.1737 8.18533 30.3391C7.46961 30.0461 6.93478 29.693 6.38423 29.1272C5.82974 28.5614 5.48367 28.0196 5.1966 27.2893C4.37863 25.1745 4.56346 20.1624 4.56346 17.8229C4.56346 15.4834 4.37863 10.4673 5.1966 8.35652C5.48367 7.62617 5.82974 7.08042 6.38423 6.51862C6.93872 5.95681 7.46961 5.59967 8.18533 5.30673C10.2539 4.47205 15.1695 4.66065 17.4622 4.66065C19.7549 4.66065 24.6706 4.47205 26.7391 5.30673C27.4548 5.59967 27.9896 5.9528 28.5402 6.51862C29.0947 7.08443 29.4408 7.62617 29.7278 8.35652C30.5458 10.4673 30.361 15.4834 30.361 17.8229C30.361 20.1624 30.5458 25.1745 29.7239 27.2853Z" fill="white"/>
</svg>
