<svg width="87" height="87" viewBox="0 0 87 87" fill="none" xmlns="http://www.w3.org/2000/svg">
<path fill-rule="evenodd" clip-rule="evenodd" d="M86.6124 49.3323C86.868 47.4246 87 45.4777 87 43.5C87 19.4756 67.5244 0 43.5 0C19.4756 0 0 19.4756 0 43.5C0 67.5244 19.4756 87 43.5 87C50.5407 87 57.1907 85.3273 63.0743 82.3577L40.2376 47.306L26.5162 50.2049C26.5661 51.6907 26.1361 52.8549 25.2385 53.2855C24.0772 53.8425 22.4479 53.0204 21.0635 51.3569L9.70778 53.756C8.46374 54.0188 7.85677 52.2986 8.99029 51.7225L18.7613 46.7569C18.2055 44.4744 18.558 42.5095 19.7869 41.9201C20.9912 41.3424 22.6986 42.2478 24.1144 44.0365L34.8001 38.606C30.4501 32.9873 23.0551 20.9885 28.2751 17.9435C33.4951 14.8985 42.0501 28.9998 45.6751 36.431L59.294 36.7942C59.3127 35.4625 59.7429 34.4329 60.575 34.0338C61.9493 33.3746 63.979 34.6469 65.4826 36.9592L77.6954 37.2849C78.9761 37.3191 79.1542 39.1534 77.9039 39.4333L67.2701 41.814C67.4437 43.5377 67.0236 44.9211 66.0266 45.3993C64.7807 45.9969 62.9961 45.007 61.5531 43.0939L50.0251 45.6748C51.4751 51.2935 57.2026 62.3135 68.5126 61.4435C78.9947 60.6372 84.6816 53.5412 86.6124 49.3323Z" fill="white"/>
</svg>
