<svg width="64" height="64" viewBox="0 0 64 64" fill="none" xmlns="http://www.w3.org/2000/svg">
<path fill-rule="evenodd" clip-rule="evenodd" d="M63.7149 36.2903C63.9029 34.8869 64 33.4548 64 32C64 14.3269 49.6731 0 32 0C14.3269 0 0 14.3269 0 32C0 49.6731 14.3269 64 32 64C37.1793 64 42.0712 62.7696 46.3993 60.585L29.5999 34.8L19.5063 36.9325C19.543 38.0255 19.2267 38.882 18.5664 39.1987C17.712 39.6085 16.5134 39.0037 15.495 37.7799L9.27638 39.0937C8.03234 39.3565 7.42537 37.6363 8.5589 37.0602L13.8014 34.396C13.3927 32.7169 13.6519 31.2716 14.556 30.8379C15.4418 30.413 16.6978 31.079 17.7393 32.3947L25.5999 28.4C22.4 24.2667 16.9599 15.44 20.7999 13.2C24.6399 10.96 30.9333 21.3333 33.5999 26.8L43.6185 27.0672C43.6323 26.0875 43.9488 25.3301 44.5609 25.0365C45.5719 24.5516 47.065 25.4875 48.1711 27.1886L54.839 27.3664C56.1197 27.4005 56.2978 29.2348 55.0475 29.5147L49.486 30.7598C49.6137 32.0279 49.3046 33.0455 48.5712 33.3973C47.6547 33.837 46.3419 33.1088 45.2804 31.7014L36.7999 33.6C37.8666 37.7333 42.0799 45.84 50.3999 45.2C58.1112 44.6068 62.2947 39.3864 63.7149 36.2903Z" fill="#FFCC00"/>
</svg>
