<svg width="24" height="24" viewBox="0 0 24 24" fill="none" xmlns="http://www.w3.org/2000/svg">
<path d="M11.4302 1.22527C11.7715 0.403066 12.9362 0.403068 13.2775 1.22528L15.7591 7.20452C15.9001 7.54417 16.2162 7.77905 16.582 7.81609L22.8528 8.45091C23.709 8.53759 24.0631 9.59342 23.4324 10.1788L18.6493 14.6177C18.3917 14.8568 18.2785 15.2135 18.3511 15.5573L19.7209 22.0431C19.9025 22.9033 18.9654 23.5624 18.2172 23.1007L12.879 19.8061C12.5571 19.6074 12.1506 19.6074 11.8287 19.8061L6.49045 23.1007C5.74225 23.5624 4.80516 22.9033 4.98684 22.0431L6.35657 15.5573C6.42918 15.2135 6.31598 14.8568 6.05839 14.6177L1.27534 10.1788C0.644552 9.59342 0.998669 8.53759 1.85486 8.45091L8.12566 7.81609C8.49154 7.77905 8.80757 7.54417 8.94854 7.20452L11.4302 1.22527Z" fill="#FFCC00"/>
</svg>
