<svg width="37" height="36" viewBox="0 0 37 36" fill="none" xmlns="http://www.w3.org/2000/svg">
<g clip-path="url(#clip0)">
<path d="M17.5909 0.00518752C14.6703 0.0397238 8.39133 0.509863 4.87938 3.66603C2.26703 6.20166 1.35492 9.95052 1.24802 14.5862C1.15931 19.2051 1.05241 27.8793 9.58776 30.2411V33.8385C9.58776 33.8385 9.53431 35.2778 10.5056 35.5731C11.702 35.9441 12.3832 34.8367 13.5205 33.6468L15.6415 31.2973C21.4815 31.773 25.9545 30.6767 26.4697 30.5141C27.6547 30.1431 34.3295 29.3075 35.4201 20.6322C36.5392 11.6729 34.8754 6.02786 31.8718 3.47441H31.8536C30.9472 2.65668 27.3044 0.0564349 19.166 0.027469C19.166 0.027469 18.5621 -0.0126376 17.5909 0.00407345V0.00518752ZM17.6909 2.52411C18.52 2.51854 19.0238 2.55307 19.0238 2.55307C25.9124 2.5709 29.2003 4.60185 29.9759 5.28589C32.5053 7.40931 33.8086 12.4984 32.8544 19.9783C31.948 27.2309 26.5345 27.6899 25.5325 28.0029C25.1061 28.1366 19.8272 28.8298 14.8641 28.5167C14.8641 28.5167 13.2926 31.4017 12.1371 32.5269C11.954 32.7241 11.8191 32.5559 11.6827 32.5269C11.487 32.4801 11.3403 32.4066 11.3517 32.0813L11.6827 28.0712C4.44382 26.1104 3.79782 18.5567 3.87516 14.692C3.96386 10.8273 4.70424 7.66555 6.90831 5.5243C9.87549 2.89621 15.2071 2.54193 17.6887 2.52411H17.6909ZM18.2368 6.38771C18.1773 6.38712 18.1182 6.39809 18.0629 6.41998C18.0077 6.44188 17.9574 6.47426 17.915 6.51527C17.8726 6.55629 17.839 6.60511 17.8159 6.65893C17.7929 6.71276 17.7809 6.77052 17.7808 6.82888C17.7808 7.07843 17.9878 7.27563 18.2368 7.27563C19.3645 7.25462 20.4852 7.4525 21.5344 7.85787C22.5835 8.26323 23.5404 8.86806 24.3498 9.63746C26.0022 11.2094 26.8074 13.3217 26.8382 16.0835C26.8382 16.3275 27.0395 16.5302 27.2942 16.5302V16.5124C27.4143 16.5127 27.5296 16.4665 27.615 16.3839C27.7004 16.3012 27.7491 16.1888 27.7503 16.0712C27.8055 14.7713 27.5903 13.4739 27.1177 12.2579C26.6452 11.042 25.9252 9.93287 25.0014 8.99798C23.2011 7.27451 20.9197 6.3866 18.2368 6.3866V6.38771ZM12.2422 7.40931C11.9203 7.36324 11.592 7.42654 11.3119 7.58868H11.288C10.6378 7.96205 10.052 8.43395 9.5525 8.98684C9.13739 9.45698 8.91221 9.93269 8.85307 10.3906C8.81781 10.6635 8.8417 10.9365 8.92472 11.1972L8.95429 11.215C9.42171 12.5608 10.0324 13.8553 10.7785 15.0741C11.7395 16.7864 12.9222 18.37 14.2973 19.7855L14.3382 19.8435L14.403 19.8903L14.444 19.9371L14.4917 19.9772C15.9421 21.3281 17.5625 22.492 19.3139 23.4408C21.3155 24.5081 22.5301 25.0128 23.2591 25.2222V25.2334C23.4729 25.2969 23.6674 25.3258 23.863 25.3258C24.4843 25.2812 25.0725 25.0342 25.5337 24.624C26.0955 24.1345 26.5719 23.5584 26.9439 22.9183V22.9072C27.2931 22.2632 27.1748 21.6538 26.671 21.2416C25.662 20.3777 24.5709 19.6103 23.4126 18.95C22.637 18.5378 21.8489 18.7873 21.5293 19.2051L20.8481 20.0462C20.4989 20.464 19.8643 20.4061 19.8643 20.4061L19.8461 20.4172C15.1138 19.233 13.8515 14.5394 13.8515 14.5394C13.8515 14.5394 13.7923 13.901 14.2302 13.5757L15.0831 12.9028C15.4914 12.5775 15.7757 11.8066 15.3379 11.0456C14.6685 9.90946 13.8868 8.8404 13.0042 7.85383C12.8112 7.62124 12.5405 7.463 12.2399 7.40709L12.2422 7.40931ZM19.0238 8.73283C18.4199 8.73283 18.4199 9.62632 19.0295 9.62632C19.7805 9.63825 20.5216 9.79503 21.2107 10.0877C21.8997 10.3804 22.5231 10.8032 23.0453 11.332C23.5216 11.8467 23.8876 12.4498 24.1217 13.1056C24.3557 13.7614 24.453 14.4566 24.4078 15.1499C24.4098 15.2672 24.4587 15.3791 24.544 15.4616C24.6292 15.544 24.744 15.5905 24.8638 15.5911L24.882 15.6145C25.0027 15.6136 25.1182 15.5662 25.2035 15.4826C25.2888 15.3991 25.3372 15.2859 25.3381 15.1677C25.379 13.3975 24.8172 11.9124 23.7152 10.7226C22.6074 9.53274 21.0619 8.86541 19.0887 8.73283H19.0238ZM19.771 11.1348C19.1489 11.1169 19.1251 12.0283 19.7415 12.0461C21.2404 12.1218 21.9683 12.8638 22.0638 14.3901C22.0659 14.5059 22.1142 14.6164 22.1984 14.6978C22.2825 14.7792 22.3959 14.8251 22.5142 14.8257H22.5324C22.5932 14.8231 22.6529 14.8087 22.708 14.7834C22.763 14.758 22.8124 14.7221 22.8531 14.6778C22.8939 14.6335 22.9252 14.5817 22.9454 14.5254C22.9655 14.4691 22.9739 14.4095 22.9702 14.35C22.8633 12.3603 21.7556 11.2395 19.7892 11.1359H19.771V11.1348Z" fill="white"/>
</g>
<defs>
<clipPath id="clip0">
<rect width="36.3589" height="35.6459" fill="white" transform="translate(0.320557)"/>
</clipPath>
</defs>
</svg>
