<svg width="652" height="555" viewBox="0 0 652 555" fill="none" xmlns="http://www.w3.org/2000/svg">
<g filter="url(#filter0_b)">
<path d="M149.958 79.9844C70.368 107.961 32.3766 157.253 0 218.081V555H643.152H652C652 555 508.694 508.025 459.559 434.192C437.641 401.257 424.07 380.339 419.848 341.018C416.855 313.154 422.404 289.32 427.098 269.625C432.463 258.735 438.352 274.093 445.518 263.887C448.389 270.636 453.125 276.913 459.454 282.538C466.495 288.814 477.223 291.186 488.874 285.692C439.188 252.042 544.346 240.458 520.98 205.373C526.575 204.329 531.237 198.51 537.712 200.043C556.266 204.447 545.499 222.15 545.194 232.391C544.724 233.225 544.673 233.444 545.187 232.823C545.187 232.681 545.189 232.537 545.194 232.391C547.879 227.619 564.242 202.721 566.454 200.043C566.601 199.88 566.727 199.7 566.852 199.537C567.649 199.309 568.34 199.064 568.738 198.803C571.567 196.929 573.977 194.858 576.115 192.673C576.89 192.494 577.582 192.152 577.644 191.712C577.686 191.467 577.707 191.222 577.728 190.978C596.169 169.751 584.979 137.226 559.266 120.841C567.167 102.956 555.096 76.3813 531.458 68.7187C531.563 67.2351 531.647 65.4417 531.688 63.4201C538.122 49.4481 535.398 33.6012 520.98 22.1726C500.883 6.26044 469.408 5.6083 443.004 9.19505C428.146 11.2167 418.276 5.03769 403.795 2.38023C392.207 0.260792 380.073 -0.570681 368.192 0.407522C347.802 2.08677 329.235 9.24396 317.227 21.8465C316.158 22.2541 315.32 22.7758 314.88 23.3627C285.563 21.2106 255.68 22.2704 228.27 31.5144C223.303 33.1773 218.525 35.1011 213.915 37.2532C206.12 40.2204 199.183 43.2528 193.902 45.6983C190.968 47.0678 189.648 49.3992 189.481 52.073C183.655 56.5401 178.353 61.3985 173.512 66.5178C166.492 73.9195 160.813 76.1694 149.958 79.9844Z" fill="white" fill-opacity="0.8"/>
</g>
<defs>
<filter id="filter0_b" x="-4" y="-4" width="660" height="563" filterUnits="userSpaceOnUse" color-interpolation-filters="sRGB">
<feFlood flood-opacity="0" result="BackgroundImageFix"/>
<feGaussianBlur in="BackgroundImage" stdDeviation="2"/>
<feComposite in2="SourceAlpha" operator="in" result="effect1_backgroundBlur"/>
<feBlend mode="normal" in="SourceGraphic" in2="effect1_backgroundBlur" result="shape"/>
</filter>
</defs>
</svg>
